<?xml version="1.0" encoding="utf-8"?>
<!-- Generator: Adobe Illustrator 27.5.0, SVG Export Plug-In . SVG Version: 6.00 Build 0)  -->
<svg version="1.1" xmlns="http://www.w3.org/2000/svg" xmlns:xlink="http://www.w3.org/1999/xlink" x="0px" y="0px"
	 viewBox="0 0 750 500" style="enable-background:new 0 0 750 500;" xml:space="preserve">
<g id="BACKGROUND">
	<g>
		<rect style="fill:#231F20;" width="750" height="500"/>
		<g>
			<text transform="matrix(1 0 0 1 222.7197 404.0498)" style="fill:#FFFFFF; font-family:'Oswald-Heavy'; font-size:42.3766px;">NO PAIN NO GAIN</text>
			<g>
				<g>
					<polygon style="fill:#F9F9F9;" points="311.615,76.184 120.288,328.548 220.451,330.629 116.376,452.58 305.746,296.216 
						201.241,296.82 					"/>
				</g>
				<g>
					<polygon style="fill:#F9F9F9;" points="438.385,76.184 629.712,328.548 529.549,330.629 633.624,452.58 444.253,296.216 
						550.76,296.82 					"/>
				</g>
			</g>
			<path style="fill:#F9F9F9;" d="M325.527,95.359c0,0-9.366,53.473,21.353,44.885c30.719-8.588-11.409-62.581,12.222-82.209
				c0,0-4.548,29.985,16.541,33.124c10.634,2.454,25.347-15.618,8.271-41.711c-11.203-17.119-2.937-27.942-2.937-27.942
				s1.379,13.373,6.875,19.354c3.544,9.814,22.843,23.718,16.935,40.893c-5.908,17.175,5.211,27.951-9.846,35.986
				c-19.704,10.514-10.363,42.697,8.767,41.075c22.006-7.293-5.938-21.584,6.888-39.049c0,0-0.201,11.958,7.188,13.514
				c4.726,0.818,21.832,23.224,5.211,46.333c-3.151,15.539,16.885,25.5,21.018-8.032c0,0,20.426,44.577,3.112,63.21
				c-75.223,74.835-141.229-0.637-141.229-0.637s-14.236-25.679,3.189-49.349c11.965-20.048,8.827-21.58,4.388-31.508
				C302.796,129.421,305.207,117.324,325.527,95.359z"/>
			<g>
				<path style="fill:#FFFFFF;" d="M313.694,366.892h89.889c-0.999-15.942-2.278-40.958-0.995-47.943
					c8.992-3.426,31.902-31.259,31.902-31.259c18.413-16.7,17.129-48.816,14.559-56.952c-2.569-8.136-13.417-13.132-13.417-13.132
					c-3.711-20.483-11.419-35.256-21.982-36.255c-11.419,0-14.916,8.279-14.916,8.279c-2.141-15.201-13.23-13.393-20.938-12.964
					c-10.252,1.065-10.75,15.962-10.75,15.962s0.346-19.753-13.57-17.826c-22.19,3.728-12.336,24.249-12.336,24.249
					s-8.434-16.261-22.28-12.355c-14.345,6.209-10.829,19.172-10.829,19.172s-1.576,39.43-3.289,61.269
					c-1.713,21.839,7.708,46.247,7.708,46.247L313.694,366.892z"/>
				<path style="fill:#FFFFFF;" d="M303.18,243.992h30.769l-15.682-23.824l-0.378,0.155l-8.837-17.43l-6.089-0.053
					c-1.642-1.298-3.006-2.298-3.848-2.947c-0.585-6.913-1.418-12.133-2.387-14.646c-2.214-12.355-4.475-20.051-4.125-19.082
					c-4.072-31.684-11.25-51.639-15.027-51.639c-0.023,0-0.048,0.007-0.071,0.008c0.107-0.121,0.215-0.242,0.323-0.339h-32.975
					c-0.054,0.037-0.107,0.093-0.161,0.136h0.397c-2.053,1.113-5.052,9.111-7.324,25.823h-34.462
					c-1.801,0.977-4.557,8.905-6.327,25.897h-24.298c-1.564,0.848-4.174,9.292-5.15,28.273h-0.041
					c-0.253,3.725-0.456,7.728-0.609,11.926h-17.744c-1.022,0.702-1.827,8.09-1.827,17.146c0,9.23,0.836,16.734,1.886,17.186h17.683
					c0.813,22.482,3.174,38.982,5.998,40.199h25.62c1.652,15.071,3.946,24.795,6.503,25.897h34.24
					c2.051,15.077,4.663,24.589,7.527,25.823h-1.749c0.07,0.04,0.14,0.105,0.211,0.135h33.14c-0.124-0.065-0.246-0.177-0.369-0.273
					c3.883-4.403,9.752-26.901,14.606-51.684c0.417-1.118,4.948-14.121,7.027-34.074
					C300.513,245.968,301.735,245.099,303.18,243.992z"/>
				<path style="fill:#FFFFFF;" d="M601.013,206.251h-17.734c-0.153-4.198-0.356-8.201-0.609-11.926h-0.041
					c-0.976-18.981-3.586-27.425-5.15-28.273h-23.321c-1.77-16.992-4.526-24.92-6.327-25.897h-34.189
					c-2.272-16.713-5.272-24.71-7.324-25.823h-1.487c-0.054-0.043-0.107-0.099-0.161-0.136h-30.346
					c0.108,0.097,0.216,0.219,0.323,0.339c-0.023-0.001-0.048-0.008-0.071-0.008c-3.777,0-13.107,21.52-15.027,51.639
					c0.35-0.969-1.91,6.727-4.125,19.082c-0.968,2.513-1.802,7.734-2.387,14.646c-0.842,0.649-2.207,1.648-3.848,2.947
					l-20.195,0.053l5.269,17.43l-0.378-0.155l-15.682,23.824h30.769c1.445,1.107,2.667,1.976,3.551,2.615
					c2.079,19.953,6.61,32.956,7.027,34.074c0.747,27.289,11.31,53.345,14.606,51.684c-0.123,0.096-0.245,0.208-0.369,0.273h30.511
					c0.071-0.03,0.14-0.095,0.211-0.135h1.437c2.864-1.234,5.477-10.746,7.527-25.823h34.075c2.556-1.101,4.851-10.825,6.503-25.897
					h23.234c2.825-1.217,5.185-17.717,5.998-40.199h17.673c1.05-0.452,1.886-7.956,1.886-17.186
					C602.84,214.34,602.035,206.953,601.013,206.251z"/>
				<g>
					<g>
						<path style="fill:#231F20;" d="M159.476,223.397c0-8.916,0.779-16.249,1.779-17.146h-13.212
							c-1.022,0.702-1.827,8.09-1.827,17.146c0,9.23,0.836,16.734,1.886,17.186h13.238
							C160.3,240.033,159.476,232.561,159.476,223.397z"/>
					</g>
					<g>
						<g>
							<path style="fill:#231F20;" d="M271.589,135.432c1.777-11.537,3.912-19.149,6.238-21.236h-32.976
								c-2.435,1.673-4.676,9.312-6.527,21.236H271.589z"/>
							<path style="fill:#231F20;" d="M268.751,161.113c0.315-3.961,0.649-7.799,1.02-11.359h-33.263
								c-0.373,3.559-0.71,7.396-1.027,11.359H268.751z"/>
							<path style="fill:#231F20;" d="M266.51,223.289c0-20.175,0.637-39.025,1.731-55.262h-33.274
								c-1.101,16.212-1.742,35.05-1.742,55.262c0,58.724,5.32,106.47,11.999,109.348h33.14
								C271.753,329.142,266.51,281.595,266.51,223.289z"/>
						</g>
						<g>
							<path style="fill:#231F20;" d="M223.024,156.336c1.355-8.796,2.983-14.6,4.756-16.191h-25.141
								c-1.856,1.276-3.565,7.1-4.977,16.191H223.024z"/>
							<path style="fill:#231F20;" d="M220.859,175.915c0.24-3.02,0.495-5.946,0.778-8.66h-25.36
								c-0.285,2.713-0.541,5.639-0.783,8.66H220.859z"/>
							<path style="fill:#231F20;" d="M219.151,223.32c0-15.382,0.486-29.753,1.32-42.133h-25.368
								c-0.839,12.36-1.328,26.722-1.328,42.133c0,44.772,4.056,81.174,9.149,83.369h25.266
								C223.148,304.023,219.151,267.773,219.151,223.32z"/>
						</g>
						<g>
							<path style="fill:#231F20;" d="M186.721,177.205c0.933-6.06,2.055-10.058,3.276-11.154h-17.319
								c-1.279,0.879-2.456,4.891-3.428,11.154H186.721z"/>
							<path style="fill:#231F20;" d="M185.23,190.693c0.165-2.08,0.341-4.096,0.536-5.966h-17.47
								c-0.196,1.869-0.373,3.885-0.54,5.966H185.23z"/>
							<path style="fill:#231F20;" d="M184.053,223.35c0-10.596,0.335-20.497,0.909-29.025h-17.476
								c-0.578,8.515-0.915,18.409-0.915,29.025c0,30.843,2.794,55.921,6.302,57.432h17.406
								C186.807,278.946,184.053,253.973,184.053,223.35z"/>
						</g>
						<path style="fill:#231F20;" d="M290.499,283.516c-3.822,0-6.92-26.907-6.92-60.099c0-33.192,3.098-60.099,6.92-60.099
							c0.734,0,1.44,1.01,2.104,2.848c-2.052-24.721-5.387-40.875-9.164-40.875c-6.24,0-11.299,43.933-11.299,98.127
							s5.059,98.126,11.299,98.126c3.777,0,7.112-16.154,9.164-40.875C291.939,282.506,291.233,283.516,290.499,283.516z"/>
						<g>
							<path style="fill:#231F20;" d="M480.271,135.432c-1.777-11.537-3.912-19.149-6.238-21.236h32.975
								c2.435,1.673,4.676,9.312,6.527,21.236H480.271z"/>
							<path style="fill:#231F20;" d="M483.11,161.113c-0.315-3.961-0.649-7.799-1.02-11.359h33.263
								c0.373,3.559,0.71,7.396,1.027,11.359H483.11z"/>
							<path style="fill:#231F20;" d="M485.351,223.289c0-20.175-0.637-39.025-1.731-55.262h33.274
								c1.1,16.212,1.742,35.05,1.742,55.262c0,58.724-5.32,106.47-11.999,109.348h-33.14
								C480.108,329.142,485.351,281.595,485.351,223.289z"/>
						</g>
						<g>
							<path style="fill:#231F20;" d="M528.837,156.336c-1.355-8.796-2.983-14.6-4.756-16.191h25.141
								c1.856,1.276,3.565,7.1,4.977,16.191H528.837z"/>
							<path style="fill:#231F20;" d="M531.001,175.915c-0.24-3.02-0.495-5.946-0.778-8.66h25.36
								c0.285,2.713,0.541,5.639,0.783,8.66H531.001z"/>
							<path style="fill:#231F20;" d="M532.71,223.32c0-15.382-0.485-29.753-1.32-42.133h25.368
								c0.839,12.36,1.328,26.722,1.328,42.133c0,44.772-4.056,81.174-9.148,83.369h-25.266
								C528.712,304.023,532.71,267.773,532.71,223.32z"/>
						</g>
						<g>
							<path style="fill:#231F20;" d="M565.14,177.205c-0.933-6.06-2.055-10.058-3.276-11.154h17.32
								c1.279,0.879,2.456,4.891,3.428,11.154H565.14z"/>
							<path style="fill:#231F20;" d="M566.631,190.693c-0.166-2.08-0.341-4.096-0.536-5.966h17.47
								c0.196,1.869,0.373,3.885,0.54,5.966H566.631z"/>
							<path style="fill:#231F20;" d="M567.808,223.35c0-10.596-0.334-20.497-0.909-29.025h17.476
								c0.578,8.515,0.915,18.409,0.915,29.025c0,30.843-2.794,55.921-6.302,57.432h-17.406
								C565.054,278.946,567.808,253.973,567.808,223.35z"/>
						</g>
						<path style="fill:#231F20;" d="M461.362,283.516c3.822,0,6.92-26.907,6.92-60.099c0-33.192-3.098-60.099-6.92-60.099
							c-0.734,0-1.44,1.01-2.104,2.848c2.052-24.721,5.387-40.875,9.164-40.875c6.24,0,11.299,43.933,11.299,98.127
							s-5.059,98.126-11.299,98.126c-3.777,0-7.112-16.154-9.164-40.875C459.922,282.506,460.628,283.516,461.362,283.516z"/>
					</g>
					<g>
						<path style="fill:#231F20;" d="M590.524,223.397c0-8.916-0.779-16.249-1.779-17.146h13.212
							c1.022,0.702,1.827,8.09,1.827,17.146c0,9.23-0.836,16.734-1.886,17.186H588.66
							C589.7,240.033,590.524,232.561,590.524,223.397z"/>
					</g>
					<g>
						<path style="fill:#231F20;" d="M434.247,208.346h26.438c-0.685-14.522-2.326-24.761-4.245-24.761
							c-1.518,0-2.859,6.441-3.693,16.31c-0.842,0.649-2.207,1.648-3.849,2.947h-17.58L434.247,208.346z"/>
						<path style="fill:#231F20;" d="M309.051,202.893l-6.089-0.052c-1.642-1.299-3.006-2.298-3.848-2.947
							c-0.835-9.868-2.175-16.31-3.693-16.31c-1.919,0-3.56,10.239-4.245,24.761l20.582-0.526L309.051,202.893z"/>
						<path style="fill:#231F20;" d="M461.019,222.087h-17.896l4.083,4.876h13.8c0.012-1.17,0.021-2.349,0.021-3.546
							C461.027,222.968,461.021,222.532,461.019,222.087z"/>
						<path style="fill:#231F20;" d="M319.392,222.087h-28.55c-0.002,0.445-0.008,0.881-0.008,1.33c0,1.197,0.009,2.376,0.021,3.546
							h30.956L319.392,222.087z"/>
						<path style="fill:#231F20;" d="M325.072,231.395h-34.146c0.425,18.175,2.276,31.853,4.495,31.853
							c1.516,0,2.854-6.424,3.689-16.265c0.879-0.647,2.328-1.658,4.07-2.991h30.769L325.072,231.395z"/>
						<path style="fill:#231F20;" d="M450.313,231.395v13.818c1.004,0.737,1.855,1.341,2.438,1.77
							c0.835,9.842,2.174,16.265,3.689,16.265c2.219,0,4.069-13.679,4.495-31.853H450.313z"/>
					</g>
				</g>
				<g>
					<path style="fill:none;stroke:#231F20;stroke-width:3.4257;stroke-miterlimit:10;" d="M306.784,233.279
						c-0.575,11.48-1.296,24.339-2.042,33.857c-1.713,21.839,7.708,46.247,7.708,46.247l1.244,53.51h89.889
						c-0.999-15.942-2.278-40.958-0.995-47.943c8.992-3.426,31.902-31.259,31.902-31.259c18.413-16.7,17.129-48.816,14.559-56.952
						c-2.569-8.136-13.417-13.132-13.417-13.132c-3.711-20.483-11.419-35.256-21.982-36.255c-11.419,0-14.916,8.279-14.916,8.279
						c-2.141-15.201-13.23-13.393-20.938-12.964c-10.252,1.065-10.75,15.962-10.75,15.962s0.346-19.753-13.57-17.826
						c-22.19,3.728-12.336,24.249-12.336,24.249s-8.434-16.261-22.28-12.355c-13.259,5.739-11.259,17.249-10.88,18.958"/>
					<path style="fill:#231F20;" d="M309.184,202.316c0,0,10.205,35.913,19.483,41.052c9.586,7.988,19.181,7.781,25.176,10.921
						c0,0-3.069,17.557-1.856,30.688c0,0,7.137-27.406,13.417-27.406s8.564,0.286,13.417-1.142c0,0,11.276,0.856,17.414-1.713
						c14.401-4.825,8.898-1.275,12.133-1.142c-3.14,11.847,6.851,20.126,6.851,20.126s-6.709-16.986,2.997-20.982
						c4.447-3.892,7.016-4.588,9.706-5.139c0.665-3.813,5.259-6.564,5.259-6.564s-2.951,1.682-9.231-0.888
						c-6.28-2.569-14.557-8.521-20.007-15.957c-1.891-2.105-4.996-9.492-1.998-17.699c2.676-2.819,8.564,1.998,17.985,6.566
						c6.851,3.14,14.452,5.603,14.452,5.603l-1.606-9.028c0,0-1.178,3.033-8.778,0.357c-3.711-2.284-23.302-9.599-26.442-9.314
						c-3.14,0.286-1.713,36.612-1.606,41.501c-4.568,7.137-13.703,8.421-21.125,4.282c0,0-17.128,3.997-17.699,0.571
						c0,0-12.846-1.142-21.125-5.71C329.2,237.909,309.184,202.316,309.184,202.316z"/>
					<path style="fill:#231F20;" d="M332.718,240.301c0,0,12.896,3.981,15.388-1.992c1.37-3.285-0.133-9.453-1.685-14.137
						c-1.999-17.772-17.487-35.657-17.487-35.657l9.453,4.66l3.195-9.053c0,0,6.124,30.202,8.836,35.34
						c2.712,5.139-1.13,21.269,11.002,26.836c0,0,8.691,1.19,10.119-0.666c1.427-1.856-6.534-51.399-6.391-55.253l6.109-10.455
						c0,0-1.57,14.559-0.143,20.697c1.427,6.138,2.997,46.675,3.997,47.674C376.11,249.293,349.704,258.999,332.718,240.301z"/>
					<path style="fill:#231F20;" d="M395.95,182.492c0,0,0.999,25.122,1.856,29.832c3.068-8.588,9.991-9.12,9.991-9.12
						s-9.848-12.29-5.994-17.001c3.854-4.71-2.997,2.712-2.997,2.712S396.521,182.492,395.95,182.492z"/>
					<path style="fill:#231F20;" d="M313.52,279.553c0,0,8.992,25.05,32.116,28.048c0,0-2.997,5.353-5.995,7.708
						c0.214,2.355-2.569,42.393-2.569,42.393l-4.924-39.824c0,0-13.06,1.071-17.985-5.353c-4.924-6.423-7.922-23.552-7.922-23.552
						s5.139,12.204,10.277,13.06C315.875,296.04,311.226,286.994,313.52,279.553z"/>
					<path style="fill:#231F20;" d="M357.84,300.536c0,0,7.28,9.421,13.489,9.207c6.209-0.214,16.058-1.713,19.912-3.426
						c7.592-1.837,19.308-18.347,19.308-18.347s-7.651,15.482-3.195,15.977c8.858,1.901,19.214-7.907,19.214-7.907
						s-16.486,21.196-25.264,22.481l0.856,39.824c0,0-6.423-32.33-8.35-34.257c-1.927-1.927-13.703,0.214-22.909-4.068
						C361.693,315.737,358.268,310.171,357.84,300.536z"/>
					<path style="fill:#231F20;" d="M393.781,366.892l-4.682-25.39c0,0-1.536,13.133-2.537,25.39H393.781z"/>
				</g>
				<g>
					<path style="fill:#231F20;" d="M326.848,191.221c0,0-0.325,0.043-0.881,0.16c-0.556,0.111-1.342,0.309-2.256,0.615
						c-0.918,0.291-1.959,0.714-3.028,1.244c-0.532,0.272-1.077,0.56-1.603,0.9c-0.547,0.306-1.054,0.69-1.564,1.067
						c-0.532,0.349-0.977,0.809-1.464,1.202c-0.462,0.42-0.88,0.875-1.307,1.294c-0.405,0.438-0.755,0.9-1.116,1.316
						c-0.373,0.408-0.625,0.868-0.918,1.252c-0.266,0.401-0.559,0.744-0.742,1.093c-0.201,0.34-0.375,0.637-0.519,0.881
						c-0.3,0.487-0.471,0.766-0.471,0.766s0.107-0.307,0.317-0.84c0.107-0.267,0.237-0.59,0.385-0.961
						c0.13-0.383,0.368-0.768,0.601-1.203c0.251-0.424,0.463-0.927,0.817-1.373c0.337-0.457,0.66-0.968,1.065-1.439
						c0.426-0.452,0.826-0.963,1.31-1.404c0.502-0.42,0.962-0.908,1.515-1.283c0.541-0.388,1.08-0.78,1.657-1.093
						c0.554-0.352,1.146-0.61,1.71-0.872c0.564-0.263,1.14-0.446,1.676-0.632c0.547-0.159,1.061-0.313,1.55-0.4
						c0.966-0.217,1.794-0.262,2.365-0.299C326.521,191.188,326.848,191.221,326.848,191.221z"/>
				</g>
				<g>
					<path style="fill:#231F20;" d="M391.179,261.233c0,0,0.796-1.142,2.313-2.564c0.748-0.724,1.677-1.513,2.745-2.27
						c1.069-0.751,2.254-1.508,3.512-2.139c0.611-0.355,1.268-0.613,1.895-0.923c0.625-0.318,1.285-0.516,1.915-0.73
						c0.633-0.206,1.278-0.284,1.88-0.373c0.6-0.107,1.181-0.115,1.713-0.117c0.533-0.001,1.017-0.011,1.449,0.046
						c0.432,0.056,0.805,0.114,1.111,0.173c0.612,0.114,0.954,0.218,0.954,0.218l0.004,0.213c0,0-0.338,0.145-0.917,0.332
						c-0.289,0.096-0.639,0.197-1.037,0.304c-0.399,0.094-0.837,0.275-1.319,0.4c-0.479,0.143-1.001,0.263-1.538,0.448
						c-0.534,0.194-1.119,0.296-1.701,0.493c-0.584,0.182-1.218,0.281-1.837,0.471c-0.622,0.182-1.264,0.352-1.877,0.601
						c-1.246,0.451-2.447,1.033-3.549,1.628c-1.091,0.613-2.098,1.225-2.922,1.811c-1.66,1.162-2.633,2.117-2.633,2.117
						L391.179,261.233z"/>
				</g>
				<g>
					<path style="fill:#231F20;" d="M347.795,191.31c0,0,0.617-0.569,1.683-1.214c0.53-0.327,1.172-0.671,1.885-0.986
						c0.361-0.147,0.725-0.326,1.118-0.449c0.387-0.138,0.785-0.268,1.191-0.378c0.403-0.115,0.819-0.19,1.226-0.269
						c0.402-0.099,0.822-0.095,1.214-0.144c0.395-0.037,0.786-0.004,1.149-0.001c0.366,0.022,0.711,0.092,1.023,0.139
						c0.313,0.059,0.592,0.172,0.837,0.247c0.249,0.063,0.444,0.192,0.606,0.278c0.323,0.181,0.494,0.29,0.494,0.29
						s-0.205-0.033-0.563-0.09c-0.176-0.029-0.38-0.081-0.628-0.081c-0.246-0.005-0.514-0.038-0.81-0.036
						c-0.295,0.015-0.614,0.031-0.952,0.048c-0.337,0.051-0.69,0.078-1.054,0.138c-0.727,0.135-1.502,0.281-2.265,0.508
						c-0.773,0.185-1.529,0.449-2.249,0.671c-0.718,0.243-1.388,0.47-1.962,0.664C348.572,191.045,347.795,191.31,347.795,191.31z"
						/>
				</g>
				<g>
					<path style="fill:#231F20;" d="M347.795,194.151c0,0,0.528-0.294,1.34-0.609c0.811-0.325,1.91-0.671,3.015-0.97
						c0.56-0.128,1.109-0.281,1.637-0.385c0.53-0.103,1.011-0.218,1.442-0.283c0.427-0.076,0.783-0.139,1.032-0.183
						c0.256-0.04,0.41-0.055,0.41-0.055s-0.112,0.095-0.323,0.249c-0.211,0.145-0.521,0.385-0.919,0.567
						c-0.393,0.198-0.863,0.428-1.378,0.605c-0.512,0.194-1.071,0.364-1.631,0.515c-1.125,0.296-2.274,0.47-3.15,0.534
						C348.396,194.206,347.795,194.151,347.795,194.151z"/>
				</g>
				<g>
					<path style="fill:#231F20;" d="M357.026,236.4c0,0,0.647,0.356,1.599,0.83c0.479,0.233,1.034,0.497,1.636,0.751
						c0.603,0.249,1.246,0.503,1.907,0.689c0.329,0.095,0.655,0.208,0.987,0.264c0.329,0.07,0.651,0.157,0.971,0.189
						c0.318,0.054,0.626,0.1,0.922,0.113c0.296,0.022,0.578,0.059,0.839,0.048c0.265,0.004,0.508,0.008,0.723,0.011
						c0.217-0.015,0.406-0.028,0.562-0.038c0.322-0.01,0.506-0.016,0.506-0.016s-0.16,0.086-0.454,0.221
						c-0.291,0.148-0.724,0.32-1.275,0.43c-0.273,0.081-0.574,0.115-0.897,0.139c-0.323,0.041-0.664,0.057-1.017,0.026
						c-0.71-0.006-1.453-0.168-2.176-0.368c-0.716-0.226-1.408-0.518-2.012-0.868c-0.608-0.341-1.136-0.723-1.557-1.082
						C357.437,237.027,357.026,236.4,357.026,236.4z"/>
				</g>
				<g>
					<path style="fill:#231F20;" d="M358.801,240.661c0,0,0.153-0.008,0.416-0.005c0.262,0.006,0.637,0.019,1.077,0.046
						c0.442,0.025,0.949,0.077,1.487,0.154c0.539,0.07,1.115,0.135,1.686,0.223c0.284,0.053,0.569,0.105,0.849,0.157
						c0.281,0.041,0.553,0.135,0.819,0.167c0.532,0.075,1.029,0.168,1.457,0.268c0.855,0.189,1.44,0.41,1.44,0.41
						s-0.582,0.137-1.477,0.201c-0.447,0.037-0.971,0.057-1.533,0.053c-0.558-0.02-1.139-0.126-1.726-0.205
						c-0.581-0.113-1.167-0.196-1.7-0.357c-0.534-0.154-1.027-0.319-1.443-0.479C359.318,240.99,358.801,240.661,358.801,240.661z"
						/>
				</g>
				<g>
					<path style="fill:#231F20;" d="M377.973,244.921c0,0,0.256-0.063,0.703-0.174c0.446-0.104,1.083-0.253,1.848-0.431
						c0.761-0.17,1.649-0.368,2.6-0.58c0.947-0.218,1.957-0.439,2.955-0.697c0.497-0.132,1.003-0.238,1.485-0.387
						c0.48-0.153,0.972-0.253,1.421-0.418c0.913-0.29,1.762-0.585,2.446-0.915c0.351-0.155,0.669-0.303,0.929-0.471
						c0.264-0.161,0.522-0.281,0.676-0.442c0.342-0.288,0.559-0.455,0.559-0.455s-0.136,0.218-0.413,0.602
						c-0.126,0.208-0.348,0.381-0.584,0.612c-0.121,0.111-0.246,0.239-0.388,0.358c-0.151,0.104-0.31,0.213-0.476,0.327
						c-0.328,0.242-0.705,0.462-1.118,0.663c-0.405,0.226-0.847,0.419-1.313,0.603c-0.924,0.388-1.945,0.682-2.967,0.956
						c-1.03,0.242-2.065,0.452-3.044,0.584c-0.978,0.137-1.895,0.226-2.685,0.263c-0.787,0.052-1.449,0.029-1.909,0.033
						C378.237,244.946,377.973,244.921,377.973,244.921z"/>
				</g>
				<g>
					<path style="fill:#231F20;" d="M373.358,184.209c0,0,0.23-0.171,0.656-0.432c0.429-0.255,1.04-0.628,1.807-1.01
						c0.765-0.386,1.679-0.795,2.687-1.166c0.507-0.175,1.024-0.382,1.571-0.527c0.54-0.165,1.096-0.313,1.658-0.439
						c0.559-0.137,1.133-0.216,1.693-0.309c0.557-0.11,1.127-0.103,1.665-0.157c0.542-0.035,1.073,0.006,1.569,0.013
						c0.499,0.035,0.968,0.12,1.397,0.179c0.429,0.075,0.811,0.217,1.148,0.312c0.341,0.083,0.616,0.237,0.844,0.341
						c0.455,0.219,0.701,0.355,0.701,0.355s-0.288-0.051-0.767-0.158c-0.24-0.052-0.521-0.141-0.867-0.151
						c-0.342-0.019-0.717-0.075-1.13-0.091c-0.414,0.003-0.862,0.005-1.336,0.008c-0.474,0.047-0.971,0.068-1.485,0.127
						c-0.513,0.08-1.043,0.131-1.579,0.238c-0.536,0.101-1.082,0.189-1.62,0.331c-1.089,0.218-2.159,0.538-3.169,0.816
						c-1.007,0.291-1.944,0.587-2.75,0.841C374.435,183.858,373.358,184.209,373.358,184.209z"/>
				</g>
				<g>
					<path style="fill:#231F20;" d="M402.826,205.157c0.556,0.535,1.013,1.175,1.38,1.864c0.37,0.687,0.664,1.426,0.835,2.199
						c0.052,0.192,0.081,0.388,0.109,0.584c0.023,0.197,0.071,0.392,0.074,0.591c0.027,0.397,0.05,0.796,0.02,1.195
						c-0.003,0.402-0.081,0.793-0.137,1.19c-0.065,0.394-0.185,0.776-0.276,1.166l-0.122-0.457l1.243,0.957
						c0.402,0.334,0.835,0.627,1.279,0.905c0.441,0.281,0.869,0.581,1.317,0.851l1.365,0.776c0.447,0.273,0.934,0.473,1.4,0.711
						c0.47,0.232,0.935,0.473,1.422,0.669c0.483,0.202,0.958,0.426,1.449,0.612l1.473,0.553l1.494,0.493l1.459,0.415
						c0.246,0.015,0.566,0.112,0.753,0.06c0.202-0.026,0.41-0.032,0.643-0.127c0.459-0.122,0.892-0.39,1.311-0.666
						c0.836-0.578,1.57-1.338,2.26-2.13c0.684-0.802,1.3-1.667,1.885-2.559c-0.432,0.977-0.969,1.906-1.571,2.798
						c-0.604,0.891-1.298,1.736-2.162,2.441c-0.435,0.345-0.908,0.673-1.469,0.865c-0.259,0.122-0.58,0.176-0.908,0.215
						c-0.34,0.058-0.551-0.017-0.833-0.019c-0.634-0.131-1.082-0.247-1.629-0.385l-1.553-0.454c-1.022-0.343-2.034-0.717-3.022-1.15
						c-0.502-0.198-0.988-0.433-1.47-0.676c-0.478-0.251-0.976-0.462-1.435-0.749l-1.4-0.817c-0.463-0.279-0.894-0.61-1.339-0.915
						c-0.448-0.304-0.884-0.622-1.29-0.982l-1.24-1.047l-0.205-0.173l0.082-0.284c0.102-0.352,0.235-0.699,0.315-1.058
						c0.071-0.36,0.165-0.719,0.189-1.087c0.058-0.366,0.065-0.734,0.07-1.105c0.013-0.186-0.019-0.369-0.026-0.555
						c-0.011-0.185-0.023-0.371-0.058-0.554c-0.089-0.739-0.282-1.471-0.568-2.172C403.651,206.448,403.288,205.772,402.826,205.157
						z"/>
				</g>
				<g>
					<path style="fill:#231F20;" d="M322.649,246.482c0,0,0.733-0.394,1.889-0.87c0.573-0.253,1.252-0.521,1.992-0.779
						c0.731-0.292,1.548-0.485,2.355-0.73c0.401-0.13,0.819-0.214,1.224-0.333c0.406-0.114,0.811-0.212,1.206-0.273
						c0.809-0.051,1.579,0.038,2.218,0.155c0.324,0.067,0.623,0.202,0.878,0.298c0.256,0.107,0.473,0.209,0.647,0.304
						c0.348,0.185,0.529,0.327,0.529,0.327l-0.04,0.209c0,0-0.228,0.103-0.595,0.22c-0.37,0.13-0.864,0.234-1.438,0.346
						c-0.591,0.177-1.258,0.304-1.984,0.35c-0.733,0.094-1.542-0.011-2.343,0.075c-1.599,0.164-3.221,0.367-4.437,0.561
						c-1.215,0.19-2.03,0.343-2.03,0.343L322.649,246.482z"/>
				</g>
				<g>
					<path style="fill:#231F20;" d="M326.504,252.304c0,0,0.272-0.75,0.867-1.789c0.298-0.519,0.665-1.122,1.136-1.721
						c0.452-0.615,1.021-1.211,1.647-1.77c0.305-0.287,0.652-0.54,0.974-0.821c0.352-0.243,0.706-0.488,1.09-0.652
						c0.401-0.129,0.779-0.277,1.174-0.296c0.392-0.024,0.756-0.055,1.094,0.003c0.338,0.053,0.64,0.134,0.897,0.206
						c0.256,0.092,0.466,0.223,0.634,0.32c0.335,0.202,0.497,0.352,0.497,0.352l-0.049,0.207c0,0-0.222,0.093-0.559,0.196
						c-0.169,0.06-0.365,0.092-0.58,0.168c-0.216,0.084-0.448,0.179-0.692,0.248c-0.244,0.073-0.493,0.23-0.759,0.311
						c-0.265,0.091-0.53,0.254-0.823,0.341c-0.291,0.106-0.597,0.231-0.929,0.325c-0.312,0.146-0.652,0.266-0.956,0.461
						c-0.618,0.37-1.212,0.813-1.753,1.262c-0.541,0.449-1.029,0.906-1.435,1.314c-0.802,0.828-1.289,1.438-1.289,1.438
						L326.504,252.304z"/>
				</g>
				<g>
					<path style="fill:#231F20;" d="M336.789,235.69c0,0,0.687-0.045,1.718-0.112c0.508-0.038,1.094-0.079,1.713-0.146
						c0.618-0.072,1.275-0.143,1.91-0.286c0.645-0.108,1.255-0.306,1.829-0.495c0.266-0.132,0.548-0.222,0.793-0.347
						c0.242-0.136,0.471-0.265,0.682-0.384c0.19-0.148,0.376-0.278,0.545-0.395c0.168-0.118,0.278-0.257,0.393-0.354
						c0.228-0.205,0.358-0.322,0.358-0.322s-0.059,0.161-0.186,0.445c-0.071,0.136-0.129,0.33-0.261,0.502
						c-0.128,0.175-0.277,0.376-0.452,0.589c-0.374,0.397-0.882,0.798-1.488,1.122c-0.31,0.135-0.627,0.3-0.967,0.407
						c-0.342,0.09-0.685,0.22-1.038,0.276c-0.705,0.133-1.416,0.193-2.078,0.177c-0.662-0.008-1.274-0.082-1.791-0.181
						C337.433,235.993,336.789,235.69,336.789,235.69z"/>
				</g>
				<g>
					<path style="fill:#231F20;" d="M338.209,239.596c0,0,0.43-0.18,1.05-0.364c0.31-0.099,0.669-0.198,1.049-0.302
						c0.379-0.109,0.783-0.201,1.176-0.322c0.401-0.094,0.784-0.226,1.153-0.329c0.176-0.067,0.352-0.122,0.522-0.173
						c0.157-0.069,0.315-0.125,0.464-0.176c0.274-0.131,0.534-0.225,0.695-0.324c0.171-0.089,0.282-0.139,0.282-0.139
						s-0.04,0.105-0.132,0.288c-0.084,0.191-0.26,0.421-0.501,0.681c-0.249,0.246-0.576,0.497-0.957,0.705
						c-0.194,0.089-0.388,0.209-0.602,0.28c-0.212,0.072-0.425,0.159-0.644,0.216c-0.877,0.235-1.78,0.277-2.449,0.203
						C338.644,239.773,338.209,239.596,338.209,239.596z"/>
				</g>
				<g>
					<path style="fill:#231F20;" d="M404.601,189.89c0,0,0.477-0.838,1.516-1.837c0.52-0.494,1.164-1.044,1.938-1.52
						c0.376-0.254,0.802-0.461,1.225-0.684c0.447-0.174,0.888-0.39,1.36-0.526c0.474-0.127,0.944-0.271,1.428-0.322
						c0.239-0.038,0.477-0.071,0.712-0.097c0.238-0.001,0.472-0.001,0.703-0.002c0.23,0.006,0.457-0.013,0.677,0.014
						c0.219,0.035,0.433,0.069,0.641,0.102c0.206,0.034,0.407,0.068,0.601,0.1c0.187,0.061,0.368,0.12,0.542,0.177
						c0.344,0.119,0.661,0.214,0.925,0.342c0.256,0.142,0.48,0.265,0.664,0.367c0.356,0.213,0.559,0.335,0.559,0.335
						s-0.232-0.05-0.639-0.138c-0.197-0.049-0.436-0.108-0.711-0.176c-0.274-0.059-0.595-0.075-0.931-0.132
						c-0.335-0.065-0.702-0.084-1.09-0.083c-0.386-0.021-0.79-0.02-1.207,0.03c-0.208,0.017-0.419,0.034-0.633,0.051
						c-0.211,0.046-0.424,0.088-0.64,0.124c-0.435,0.055-0.859,0.202-1.286,0.325c-0.432,0.11-0.842,0.301-1.258,0.448
						c-0.393,0.204-0.812,0.341-1.179,0.557c-0.375,0.2-0.743,0.387-1.076,0.596c-0.342,0.195-0.65,0.405-0.946,0.587
						C405.345,189.293,404.601,189.89,404.601,189.89z"/>
				</g>
				<g>
					<path style="fill:#231F20;" d="M408.152,189.535c0,0,0.521-0.458,1.416-0.951c0.889-0.501,2.153-1.03,3.493-1.337
						c0.333-0.08,0.677-0.123,1.01-0.181c0.333-0.062,0.675-0.056,0.996-0.086c0.651-0.022,1.263,0.036,1.776,0.14
						c0.512,0.126,0.925,0.255,1.192,0.412c0.27,0.14,0.414,0.227,0.414,0.227s-0.171-0.008-0.469-0.022
						c-0.287-0.039-0.706-0.009-1.185-0.007c-0.244,0.026-0.505,0.047-0.778,0.065c-0.274,0.038-0.563,0.078-0.861,0.119
						c-0.595,0.109-1.229,0.212-1.859,0.371c-0.635,0.127-1.264,0.302-1.862,0.447c-0.6,0.153-1.16,0.295-1.64,0.417
						C408.828,189.399,408.152,189.535,408.152,189.535z"/>
				</g>
				<g>
					<path style="fill:#231F20;" d="M440.816,225.039c0,0-0.378,0.468-0.944,1.17c-0.552,0.693-1.286,1.588-1.919,2.535
						c-0.154,0.238-0.333,0.464-0.465,0.71c-0.135,0.244-0.304,0.466-0.419,0.706c-0.123,0.236-0.264,0.456-0.362,0.68
						c-0.099,0.223-0.227,0.427-0.301,0.629c-0.08,0.201-0.165,0.385-0.241,0.55c-0.062,0.17-0.116,0.318-0.16,0.44
						c-0.095,0.247-0.16,0.392-0.16,0.392s-0.025-0.15-0.05-0.42c-0.037-0.272-0.041-0.66,0.022-1.124
						c0.013-0.238,0.08-0.48,0.144-0.742c0.056-0.265,0.148-0.533,0.259-0.804c0.201-0.554,0.518-1.095,0.854-1.617
						c0.362-0.505,0.752-0.987,1.172-1.385c0.41-0.406,0.835-0.74,1.215-0.998C440.219,225.236,440.816,225.039,440.816,225.039z"/>
				</g>
				<g>
					<path style="fill:#231F20;" d="M443.656,227.524c0,0-0.236,0.495-0.69,1.138c-0.223,0.326-0.5,0.689-0.813,1.062
						c-0.317,0.365-0.654,0.755-0.992,1.145c-0.694,0.754-1.451,1.45-2.077,1.932c-0.618,0.487-1.108,0.758-1.108,0.758
						s0.21-0.494,0.641-1.153c0.424-0.664,1.067-1.496,1.772-2.271c0.36-0.382,0.721-0.759,1.097-1.068
						c0.367-0.32,0.725-0.604,1.046-0.833C443.166,227.769,443.656,227.524,443.656,227.524z"/>
				</g>
				<g>
					<path style="fill:#231F20;" d="M436.2,239.241c0,0,0.562-0.631,1.442-1.504c0.438-0.44,0.95-0.946,1.506-1.477
						c0.545-0.542,1.145-1.097,1.717-1.677c0.292-0.284,0.59-0.562,0.862-0.854c0.277-0.289,0.565-0.557,0.818-0.84
						c0.526-0.548,0.996-1.076,1.376-1.547c0.384-0.469,0.682-0.885,0.861-1.193c0.187-0.315,0.294-0.495,0.294-0.495
						s-0.027,0.204-0.097,0.573c-0.027,0.189-0.098,0.402-0.193,0.644c-0.087,0.247-0.191,0.526-0.35,0.801
						c-0.145,0.285-0.305,0.597-0.515,0.893c-0.197,0.308-0.41,0.631-0.663,0.934c-0.475,0.638-1.058,1.246-1.647,1.843
						c-0.605,0.581-1.231,1.137-1.847,1.622c-0.616,0.483-1.21,0.91-1.74,1.247C436.974,238.896,436.2,239.241,436.2,239.241z"/>
				</g>
				<g>
					<path style="fill:#231F20;" d="M442.236,237.111c0,0,0.323-0.358,0.782-0.846c0.24-0.231,0.486-0.535,0.783-0.81
						c0.142-0.145,0.268-0.316,0.419-0.462c0.144-0.154,0.31-0.294,0.432-0.47c0.14-0.16,0.281-0.32,0.419-0.478
						c0.143-0.155,0.285-0.306,0.393-0.473c0.225-0.326,0.52-0.594,0.688-0.872c0.355-0.545,0.698-0.914,0.698-0.914
						s0.005,0.467-0.146,1.177c-0.056,0.364-0.269,0.721-0.459,1.129c-0.099,0.203-0.205,0.411-0.363,0.585
						c-0.145,0.184-0.292,0.371-0.439,0.559c-0.149,0.188-0.338,0.333-0.506,0.494c-0.171,0.158-0.352,0.3-0.526,0.435
						c-0.373,0.24-0.712,0.472-1.046,0.601C442.727,237.069,442.236,237.111,442.236,237.111z"/>
				</g>
				<g>
					<path style="fill:#231F20;" d="M319.569,325.338c0,0,2.415-0.086,6.039-0.214c1.809-0.058,3.916-0.185,6.167-0.33
						c1.126-0.067,2.284-0.182,3.461-0.283c1.174-0.12,2.362-0.265,3.537-0.458l1.745-0.329c0.552-0.168,1.143-0.271,1.656-0.487
						l0.777-0.307l0.835-0.351c0.55-0.2,1.168-0.416,1.733-0.519c1.146-0.274,2.285-0.327,3.346-0.292
						c1.064,0.024,2.057,0.163,2.959,0.335c1.81,0.34,3.238,0.898,4.221,1.292c0.981,0.408,1.514,0.699,1.514,0.699
						s-0.572-0.204-1.583-0.504c-1.007-0.311-2.475-0.659-4.247-0.896c-1.765-0.234-3.88-0.266-5.993,0.277
						c-0.269,0.056-0.528,0.135-0.778,0.229c-0.257,0.098-0.505,0.148-0.774,0.286l-0.777,0.354l-0.871,0.358
						c-0.583,0.248-1.183,0.358-1.78,0.544c-0.601,0.119-1.204,0.255-1.809,0.36c-1.212,0.187-2.424,0.322-3.618,0.431
						c-1.194,0.098-2.37,0.154-3.507,0.194c-2.275,0.078-4.396,0.029-6.212-0.008c-1.816-0.043-3.326-0.169-4.383-0.233
						C320.171,325.408,319.569,325.338,319.569,325.338z"/>
				</g>
				<g>
					<path style="fill:#231F20;" d="M329.152,331.776c0,0,0.93-0.202,2.324-0.38c1.389-0.201,3.242-0.376,5.083-0.578
						c0.927-0.065,1.837-0.205,2.704-0.273c0.849-0.133,1.669-0.177,2.342-0.314c0.34-0.061,0.656-0.106,0.938-0.146
						c0.274-0.065,0.513-0.122,0.709-0.169c0.406-0.089,0.637-0.14,0.637-0.14s-0.196,0.126-0.557,0.336
						c-0.182,0.1-0.401,0.24-0.666,0.362c-0.268,0.108-0.572,0.229-0.909,0.35c-0.335,0.135-0.704,0.254-1.1,0.344
						c-0.395,0.1-0.811,0.218-1.247,0.304c-0.87,0.16-1.806,0.317-2.743,0.405c-0.939,0.092-1.878,0.148-2.759,0.163
						c-0.881,0.028-1.706-0.006-2.411-0.035C330.091,331.93,329.152,331.776,329.152,331.776z"/>
				</g>
				<g>
					<path style="fill:#231F20;" d="M364.617,339.288c0,0,0.319,0.083,0.867,0.251c0.544,0.176,1.332,0.408,2.259,0.722
						c1.859,0.616,4.302,1.525,6.733,2.448c2.42,0.95,4.84,1.9,6.655,2.612c0.456,0.169,0.871,0.339,1.239,0.492
						c0.369,0.146,0.698,0.244,0.968,0.34c0.539,0.188,0.848,0.311,0.848,0.311s-0.325-0.03-0.895-0.109
						c-0.573-0.073-1.386-0.21-2.341-0.449c-1.921-0.452-4.416-1.262-6.855-2.202c-1.217-0.478-2.43-0.965-3.548-1.466
						c-1.124-0.486-2.157-0.98-3.037-1.413c-0.883-0.426-1.595-0.833-2.105-1.094C364.9,339.457,364.617,339.288,364.617,339.288z"
						/>
				</g>
				<g>
					<path style="fill:#231F20;" d="M330.573,338.148c0,0,0.414-0.062,1.141-0.144c0.724-0.085,1.758-0.205,2.999-0.351
						c1.237-0.156,2.679-0.327,4.206-0.569c0.764-0.12,1.549-0.26,2.333-0.433c0.397-0.074,0.791-0.162,1.173-0.282
						c0.379-0.121,0.792-0.191,1.14-0.36c0.77-0.305,1.539-0.609,2.297-0.909c0.397-0.135,0.839-0.214,1.251-0.311l0.621-0.132
						l0.608-0.056c0.402-0.028,0.797-0.09,1.183-0.087c0.386,0.013,0.763,0.025,1.13,0.037c0.733,0.021,1.414,0.158,2.042,0.244
						c0.62,0.14,1.189,0.252,1.679,0.408c0.49,0.157,0.918,0.277,1.263,0.403c0.687,0.261,1.071,0.423,1.071,0.423
						s-0.415-0.073-1.126-0.223c-0.356-0.075-0.795-0.132-1.292-0.215c-0.497-0.08-1.068-0.107-1.677-0.189
						c-0.616-0.017-1.28-0.081-1.978-0.056c-0.348,0.014-0.706,0.029-1.072,0.044c-0.364,0.029-0.73,0.095-1.104,0.141l-0.565,0.076
						l-0.543,0.144c-0.364,0.109-0.728,0.173-1.105,0.302c-0.763,0.315-1.537,0.634-2.312,0.954
						c-0.41,0.185-0.829,0.249-1.241,0.373c-0.413,0.122-0.826,0.207-1.237,0.278c-0.819,0.176-1.633,0.259-2.416,0.354
						c-0.783,0.102-1.544,0.126-2.262,0.183c-0.719,0.039-1.4,0.05-2.027,0.067C332.239,338.276,330.573,338.148,330.573,338.148z"
						/>
				</g>
				<path style="fill:#231F20;" d="M351.061,366.892h1.593c0.474-16.31,1.385-52.012,0.29-52.56c-1.42-0.71-4.527,2.397-4.527,2.397
					c-6.479,5.769,1.509,33.64,1.509,39.321C349.925,358.726,350.477,363.058,351.061,366.892z"/>
				<path style="fill:none;stroke:#231F20;stroke-width:1.0651;stroke-miterlimit:10;" d="M420.756,213.145
					c0,0-2.13,2.308-1.598,7.811"/>
			</g>
		</g>
	</g>
</g>
<g id="DESIGNED_BY_FREEPIK">
	<g>
		<g>
			<path style="fill:#F9F9F9;" d="M290.816,478.394V478.2c-0.263,0.301-0.522,0.546-0.778,0.734
				c-0.255,0.189-0.533,0.333-0.832,0.431c-0.299,0.1-0.625,0.147-0.978,0.147c-0.469,0-0.903-0.099-1.302-0.297
				c-0.399-0.198-0.744-0.482-1.035-0.85c-0.292-0.368-0.513-0.8-0.663-1.298c-0.15-0.498-0.226-1.035-0.226-1.613
				c0-1.224,0.299-2.179,0.896-2.862c0.598-0.683,1.384-1.025,2.359-1.025c0.564,0,1.04,0.097,1.427,0.29
				c0.388,0.194,0.765,0.492,1.133,0.893v-2.889c0-0.402,0.08-0.705,0.24-0.91c0.16-0.206,0.388-0.308,0.685-0.308
				c0.296,0,0.524,0.094,0.685,0.283c0.16,0.19,0.24,0.467,0.24,0.835v8.634c0,0.373-0.085,0.652-0.258,0.839
				c-0.172,0.186-0.394,0.279-0.667,0.279c-0.268,0-0.489-0.096-0.664-0.29C290.903,479.028,290.816,478.752,290.816,478.394z
				 M286.965,475.518c0,0.531,0.083,0.982,0.247,1.355c0.165,0.373,0.391,0.654,0.678,0.842c0.287,0.19,0.6,0.285,0.939,0.285
				c0.344,0,0.658-0.09,0.943-0.27c0.284-0.178,0.511-0.454,0.681-0.824c0.17-0.371,0.254-0.835,0.254-1.388
				c0-0.521-0.084-0.97-0.254-1.346c-0.17-0.374-0.399-0.661-0.688-0.86c-0.289-0.198-0.606-0.296-0.95-0.296
				c-0.358,0-0.679,0.102-0.961,0.305c-0.282,0.203-0.501,0.494-0.656,0.874C287.042,474.575,286.965,475.016,286.965,475.518z"/>
			<path style="fill:#F9F9F9;" d="M299.447,476.014h-3.828c0.005,0.444,0.094,0.836,0.269,1.175c0.174,0.34,0.406,0.596,0.695,0.768
				c0.289,0.172,0.609,0.257,0.957,0.257c0.234,0,0.448-0.027,0.642-0.081c0.194-0.056,0.381-0.141,0.563-0.259
				c0.182-0.117,0.349-0.242,0.502-0.377c0.153-0.134,0.351-0.316,0.595-0.546c0.1-0.086,0.244-0.129,0.431-0.129
				c0.201,0,0.363,0.056,0.487,0.166c0.124,0.111,0.187,0.265,0.187,0.466c0,0.177-0.07,0.383-0.208,0.62
				c-0.14,0.237-0.349,0.464-0.628,0.681c-0.28,0.217-0.631,0.397-1.055,0.541c-0.422,0.144-0.909,0.215-1.459,0.215
				c-1.257,0-2.235-0.359-2.932-1.076c-0.698-0.717-1.047-1.69-1.047-2.918c0-0.579,0.086-1.116,0.258-1.61
				c0.173-0.495,0.424-0.919,0.753-1.273c0.33-0.354,0.736-0.624,1.219-0.814c0.483-0.189,1.018-0.282,1.606-0.282
				c0.765,0,1.421,0.16,1.967,0.484c0.548,0.322,0.958,0.74,1.23,1.25c0.272,0.512,0.409,1.034,0.409,1.563
				c0,0.493-0.141,0.812-0.423,0.958C300.357,475.94,299.96,476.014,299.447,476.014z M295.619,474.902h3.549
				c-0.047-0.669-0.229-1.171-0.541-1.503c-0.313-0.333-0.725-0.498-1.237-0.498c-0.488,0-0.888,0.168-1.201,0.505
				C295.876,473.743,295.686,474.242,295.619,474.902z"/>
			<path style="fill:#F9F9F9;" d="M308.367,476.952c0,0.54-0.131,1.003-0.394,1.388c-0.263,0.385-0.651,0.677-1.165,0.875
				c-0.514,0.198-1.139,0.297-1.875,0.297c-0.703,0-1.305-0.108-1.807-0.323c-0.502-0.215-0.872-0.484-1.111-0.806
				c-0.239-0.324-0.359-0.647-0.359-0.973c0-0.215,0.076-0.399,0.23-0.551c0.153-0.153,0.346-0.229,0.581-0.229
				c0.205,0,0.362,0.05,0.473,0.15c0.11,0.1,0.216,0.242,0.315,0.423c0.201,0.35,0.442,0.609,0.721,0.782
				c0.279,0.172,0.66,0.258,1.144,0.258c0.392,0,0.713-0.088,0.964-0.262c0.251-0.176,0.376-0.375,0.376-0.599
				c0-0.344-0.13-0.594-0.391-0.752c-0.261-0.158-0.69-0.309-1.287-0.453c-0.674-0.167-1.222-0.343-1.646-0.527
				c-0.423-0.183-0.761-0.426-1.014-0.727c-0.253-0.302-0.38-0.672-0.38-1.112c0-0.391,0.117-0.762,0.351-1.112
				c0.235-0.348,0.58-0.627,1.037-0.835c0.456-0.209,1.006-0.313,1.652-0.313c0.507,0,0.963,0.052,1.366,0.159
				c0.404,0.104,0.742,0.246,1.012,0.423c0.27,0.176,0.476,0.372,0.616,0.587c0.141,0.215,0.211,0.426,0.211,0.632
				c0,0.224-0.075,0.408-0.225,0.552c-0.15,0.142-0.364,0.215-0.642,0.215c-0.201,0-0.372-0.058-0.512-0.173
				c-0.141-0.114-0.302-0.286-0.484-0.515c-0.148-0.191-0.322-0.344-0.523-0.459c-0.201-0.115-0.473-0.172-0.818-0.172
				c-0.354,0-0.647,0.074-0.882,0.226c-0.234,0.15-0.351,0.337-0.351,0.562c0,0.206,0.086,0.375,0.258,0.506
				c0.173,0.132,0.404,0.241,0.696,0.327c0.292,0.086,0.692,0.19,1.205,0.315c0.607,0.149,1.102,0.326,1.488,0.531
				c0.384,0.205,0.676,0.448,0.875,0.728C308.269,476.275,308.367,476.593,308.367,476.952z"/>
			<path style="fill:#F9F9F9;" d="M310.367,470.643c-0.272,0-0.505-0.084-0.699-0.251c-0.193-0.167-0.29-0.403-0.29-0.71
				c0-0.278,0.099-0.505,0.297-0.685c0.198-0.18,0.43-0.269,0.692-0.269c0.254,0,0.478,0.081,0.674,0.244
				c0.196,0.163,0.295,0.399,0.295,0.71c0,0.302-0.096,0.537-0.288,0.706C310.857,470.557,310.63,470.643,310.367,470.643z
				 M311.336,472.664v5.657c0,0.392-0.093,0.689-0.28,0.89c-0.187,0.201-0.423,0.301-0.71,0.301s-0.52-0.102-0.699-0.308
				c-0.18-0.206-0.269-0.5-0.269-0.882v-5.6c0-0.386,0.089-0.678,0.269-0.874c0.179-0.196,0.412-0.294,0.699-0.294
				s0.523,0.098,0.71,0.294C311.242,472.043,311.336,472.316,311.336,472.664z"/>
			<path style="fill:#F9F9F9;" d="M319.911,472.987v5.686c0,0.65-0.07,1.21-0.209,1.679c-0.137,0.467-0.36,0.855-0.667,1.161
				c-0.306,0.305-0.706,0.533-1.201,0.681c-0.495,0.149-1.11,0.223-1.847,0.223c-0.674,0-1.276-0.094-1.807-0.283
				c-0.53-0.189-0.939-0.433-1.226-0.731c-0.286-0.299-0.431-0.606-0.431-0.922c0-0.239,0.082-0.434,0.245-0.584
				c0.162-0.151,0.359-0.226,0.587-0.226c0.287,0,0.538,0.127,0.753,0.38c0.105,0.129,0.214,0.26,0.326,0.392
				c0.113,0.132,0.237,0.244,0.373,0.338c0.136,0.092,0.3,0.161,0.491,0.207c0.191,0.044,0.412,0.068,0.66,0.068
				c0.507,0,0.9-0.07,1.18-0.212c0.28-0.141,0.476-0.338,0.588-0.592c0.112-0.252,0.178-0.523,0.197-0.813
				c0.019-0.29,0.033-0.754,0.043-1.396c-0.301,0.422-0.648,0.742-1.044,0.962c-0.394,0.22-0.864,0.33-1.409,0.33
				c-0.655,0-1.227-0.167-1.718-0.502c-0.49-0.335-0.866-0.803-1.129-1.405c-0.263-0.603-0.394-1.297-0.394-2.086
				c0-0.588,0.08-1.119,0.24-1.592c0.161-0.474,0.389-0.873,0.685-1.198c0.296-0.325,0.638-0.57,1.025-0.735
				c0.387-0.164,0.813-0.247,1.277-0.247c0.554,0,1.035,0.107,1.441,0.319c0.406,0.214,0.784,0.547,1.133,1.001v-0.266
				c0-0.339,0.083-0.602,0.251-0.789c0.168-0.186,0.383-0.28,0.646-0.28c0.378,0,0.628,0.124,0.752,0.369
				C319.849,472.168,319.911,472.524,319.911,472.987z M314.239,475.468c0,0.793,0.173,1.393,0.519,1.8
				c0.347,0.407,0.795,0.61,1.345,0.61c0.325,0,0.632-0.088,0.921-0.262c0.29-0.175,0.525-0.438,0.707-0.789
				c0.181-0.352,0.272-0.778,0.272-1.28c0-0.798-0.176-1.42-0.527-1.864c-0.352-0.445-0.814-0.667-1.388-0.667
				c-0.56,0-1.007,0.213-1.344,0.639C314.407,474.079,314.239,474.685,314.239,475.468z"/>
			<path style="fill:#F9F9F9;" d="M323.022,472.636v0.237c0.344-0.454,0.72-0.787,1.129-1.001c0.409-0.212,0.878-0.319,1.409-0.319
				c0.516,0,0.978,0.113,1.384,0.338c0.406,0.225,0.71,0.543,0.91,0.953c0.13,0.24,0.213,0.498,0.251,0.775
				c0.038,0.278,0.058,0.631,0.058,1.062v3.642c0,0.392-0.09,0.689-0.27,0.89c-0.179,0.201-0.412,0.301-0.699,0.301
				c-0.292,0-0.528-0.102-0.71-0.308c-0.182-0.206-0.272-0.5-0.272-0.882v-3.263c0-0.645-0.09-1.139-0.269-1.48
				c-0.18-0.341-0.536-0.513-1.072-0.513c-0.348,0-0.667,0.104-0.953,0.312c-0.287,0.209-0.497,0.495-0.631,0.858
				c-0.095,0.292-0.143,0.836-0.143,1.634v2.452c0,0.397-0.092,0.695-0.276,0.893c-0.184,0.198-0.422,0.297-0.713,0.297
				c-0.283,0-0.514-0.102-0.696-0.308c-0.181-0.206-0.272-0.5-0.272-0.882v-5.657c0-0.373,0.081-0.652,0.244-0.836
				c0.163-0.184,0.385-0.276,0.667-0.276c0.173,0,0.328,0.041,0.467,0.122c0.138,0.082,0.25,0.203,0.333,0.365
				C322.98,472.203,323.022,472.402,323.022,472.636z"/>
			<path style="fill:#F9F9F9;" d="M334.931,476.014h-3.829c0.005,0.444,0.094,0.836,0.269,1.175c0.174,0.34,0.406,0.596,0.696,0.768
				c0.288,0.172,0.608,0.257,0.957,0.257c0.234,0,0.448-0.027,0.642-0.081c0.193-0.056,0.38-0.141,0.563-0.259
				c0.181-0.117,0.348-0.242,0.502-0.377c0.152-0.134,0.351-0.316,0.595-0.546c0.1-0.086,0.244-0.129,0.43-0.129
				c0.201,0,0.363,0.056,0.488,0.166c0.124,0.111,0.186,0.265,0.186,0.466c0,0.177-0.069,0.383-0.208,0.62
				c-0.139,0.237-0.348,0.464-0.628,0.681c-0.28,0.217-0.63,0.397-1.054,0.541c-0.423,0.144-0.91,0.215-1.459,0.215
				c-1.257,0-2.235-0.359-2.933-1.076c-0.697-0.717-1.047-1.69-1.047-2.918c0-0.579,0.086-1.116,0.258-1.61
				c0.172-0.495,0.424-0.919,0.753-1.273c0.329-0.354,0.736-0.624,1.219-0.814c0.483-0.189,1.019-0.282,1.607-0.282
				c0.765,0,1.42,0.16,1.967,0.484c0.548,0.322,0.958,0.74,1.23,1.25c0.272,0.512,0.409,1.034,0.409,1.563
				c0,0.493-0.141,0.812-0.423,0.958C335.84,475.94,335.443,476.014,334.931,476.014z M331.103,474.902h3.549
				c-0.048-0.669-0.228-1.171-0.541-1.503c-0.313-0.333-0.725-0.498-1.237-0.498c-0.488,0-0.889,0.168-1.202,0.505
				C331.359,473.743,331.17,474.242,331.103,474.902z"/>
			<path style="fill:#F9F9F9;" d="M342.911,478.394V478.2c-0.263,0.301-0.522,0.546-0.778,0.734
				c-0.256,0.189-0.533,0.333-0.832,0.431c-0.298,0.1-0.625,0.147-0.978,0.147c-0.469,0-0.903-0.099-1.302-0.297
				c-0.399-0.198-0.745-0.482-1.036-0.85c-0.292-0.368-0.513-0.8-0.663-1.298c-0.151-0.498-0.226-1.035-0.226-1.613
				c0-1.224,0.298-2.179,0.896-2.862c0.598-0.683,1.384-1.025,2.359-1.025c0.564,0,1.04,0.097,1.427,0.29
				c0.387,0.194,0.765,0.492,1.132,0.893v-2.889c0-0.402,0.08-0.705,0.241-0.91c0.16-0.206,0.389-0.308,0.685-0.308
				c0.296,0,0.524,0.094,0.685,0.283c0.16,0.19,0.24,0.467,0.24,0.835v8.634c0,0.373-0.086,0.652-0.258,0.839
				c-0.172,0.186-0.394,0.279-0.667,0.279c-0.268,0-0.489-0.096-0.663-0.29C342.998,479.028,342.911,478.752,342.911,478.394z
				 M339.061,475.518c0,0.531,0.082,0.982,0.247,1.355c0.165,0.373,0.391,0.654,0.678,0.842c0.286,0.19,0.599,0.285,0.939,0.285
				c0.345,0,0.659-0.09,0.943-0.27c0.285-0.178,0.512-0.454,0.681-0.824c0.17-0.371,0.255-0.835,0.255-1.388
				c0-0.521-0.085-0.97-0.255-1.346c-0.169-0.374-0.399-0.661-0.688-0.86c-0.29-0.198-0.606-0.296-0.95-0.296
				c-0.358,0-0.679,0.102-0.961,0.305c-0.282,0.203-0.501,0.494-0.656,0.874C339.138,474.575,339.061,475.016,339.061,475.518z"/>
			<path style="fill:#F9F9F9;" d="M350.912,469.76v2.99c0.368-0.382,0.743-0.675,1.126-0.878c0.382-0.203,0.856-0.305,1.42-0.305
				c0.65,0,1.22,0.154,1.711,0.462c0.489,0.31,0.869,0.757,1.14,1.342c0.27,0.585,0.406,1.28,0.406,2.084
				c0,0.593-0.076,1.135-0.226,1.631c-0.151,0.495-0.37,0.924-0.656,1.286c-0.287,0.363-0.635,0.645-1.043,0.843
				c-0.409,0.198-0.86,0.297-1.352,0.297c-0.302,0-0.585-0.035-0.85-0.108c-0.266-0.072-0.492-0.165-0.678-0.283
				c-0.186-0.116-0.345-0.237-0.477-0.362c-0.132-0.124-0.305-0.311-0.52-0.56v0.194c0,0.368-0.089,0.647-0.265,0.836
				c-0.176,0.189-0.401,0.282-0.674,0.282c-0.277,0-0.499-0.094-0.663-0.282c-0.165-0.189-0.247-0.468-0.247-0.836v-8.548
				c0-0.397,0.08-0.697,0.24-0.9c0.16-0.203,0.384-0.304,0.671-0.304c0.302,0,0.533,0.097,0.695,0.29
				C350.831,469.126,350.912,469.401,350.912,469.76z M351.006,475.576c0,0.779,0.178,1.377,0.534,1.795
				c0.356,0.419,0.823,0.629,1.402,0.629c0.492,0,0.917-0.214,1.272-0.642c0.356-0.428,0.534-1.041,0.534-1.839
				c0-0.516-0.073-0.962-0.222-1.334c-0.149-0.373-0.358-0.661-0.631-0.864c-0.273-0.203-0.591-0.305-0.954-0.305
				c-0.373,0-0.706,0.102-0.997,0.305c-0.292,0.203-0.521,0.497-0.689,0.882C351.089,474.586,351.006,475.045,351.006,475.576z"/>
			<path style="fill:#F9F9F9;" d="M359.252,479.756l0.179-0.438l-2.409-6.066c-0.148-0.348-0.223-0.602-0.223-0.76
				c0-0.167,0.044-0.322,0.129-0.465c0.086-0.144,0.204-0.259,0.355-0.344c0.151-0.087,0.307-0.13,0.47-0.13
				c0.282,0,0.494,0.09,0.638,0.269c0.144,0.179,0.27,0.436,0.38,0.77l1.657,4.819l1.57-4.482c0.124-0.362,0.236-0.647,0.337-0.853
				c0.1-0.206,0.206-0.344,0.319-0.415c0.112-0.072,0.271-0.108,0.477-0.108c0.149,0,0.29,0.039,0.427,0.119
				c0.136,0.079,0.241,0.185,0.315,0.319c0.074,0.133,0.112,0.274,0.112,0.422c-0.02,0.091-0.05,0.22-0.094,0.388
				c-0.043,0.167-0.095,0.338-0.157,0.509l-2.553,6.683c-0.221,0.588-0.435,1.048-0.646,1.383c-0.211,0.335-0.488,0.593-0.835,0.771
				c-0.347,0.18-0.814,0.269-1.402,0.269c-0.573,0-1.004-0.062-1.29-0.186c-0.288-0.125-0.431-0.352-0.431-0.682
				c0-0.224,0.068-0.398,0.205-0.52c0.136-0.122,0.338-0.184,0.605-0.184c0.105,0,0.209,0.015,0.309,0.044
				c0.124,0.028,0.232,0.043,0.322,0.043c0.224,0,0.402-0.033,0.531-0.101c0.129-0.066,0.245-0.182,0.348-0.348
				C358.999,480.319,359.118,480.076,359.252,479.756z"/>
		</g>
		<g>
			<path style="fill:#F9F9F9;" d="M387.61,471.722h0.467v-0.588c0-0.615,0.075-1.1,0.232-1.463c0.154-0.361,0.419-0.624,0.79-0.789
				c0.37-0.164,0.878-0.246,1.522-0.246c1.147,0,1.716,0.277,1.716,0.841c0,0.18-0.06,0.335-0.181,0.464
				c-0.116,0.128-0.259,0.193-0.421,0.193c-0.075,0-0.21-0.014-0.398-0.045c-0.179-0.025-0.341-0.042-0.47-0.042
				c-0.353,0-0.579,0.106-0.683,0.313c-0.096,0.208-0.147,0.505-0.147,0.894v0.466h0.478c0.748,0,1.118,0.224,1.118,0.676
				c0,0.316-0.096,0.521-0.296,0.608c-0.198,0.086-0.471,0.129-0.822,0.129h-0.478v5.187c0,0.386-0.091,0.68-0.279,0.882
				c-0.182,0.206-0.418,0.307-0.711,0.307c-0.277,0-0.507-0.101-0.693-0.307c-0.184-0.202-0.275-0.496-0.275-0.882v-5.187h-0.539
				c-0.293,0-0.515-0.063-0.674-0.198c-0.158-0.129-0.237-0.302-0.237-0.512C386.626,471.954,386.954,471.722,387.61,471.722"/>
			<path style="fill:#F9F9F9;" d="M394.019,476.685v1.637c0,0.395-0.1,0.694-0.282,0.891c-0.186,0.201-0.422,0.298-0.708,0.298
				c-0.288,0-0.519-0.099-0.7-0.302c-0.178-0.199-0.272-0.496-0.272-0.886v-5.453c0-0.88,0.317-1.32,0.952-1.32
				c0.327,0,0.561,0.102,0.705,0.308c0.143,0.206,0.223,0.509,0.24,0.912c0.232-0.403,0.471-0.706,0.716-0.912
				c0.251-0.206,0.576-0.308,0.989-0.308c0.414,0,0.81,0.102,1.197,0.308c0.389,0.206,0.582,0.481,0.582,0.819
				c0,0.238-0.083,0.438-0.246,0.59c-0.166,0.158-0.343,0.235-0.533,0.235c-0.075,0-0.25-0.047-0.523-0.136
				c-0.276-0.086-0.52-0.131-0.727-0.131c-0.287,0-0.523,0.077-0.703,0.225c-0.183,0.155-0.325,0.375-0.426,0.669
				c-0.097,0.298-0.165,0.653-0.206,1.06C394.036,475.599,394.019,476.098,394.019,476.685"/>
			<path style="fill:#F9F9F9;" d="M403.019,476.012h-3.831c0.007,0.444,0.094,0.838,0.268,1.177
				c0.178,0.337,0.408,0.593,0.698,0.768c0.29,0.172,0.607,0.257,0.958,0.257c0.234,0,0.448-0.025,0.641-0.084
				c0.192-0.052,0.381-0.14,0.563-0.257c0.183-0.115,0.347-0.24,0.501-0.378c0.153-0.132,0.352-0.314,0.596-0.543
				c0.102-0.085,0.245-0.131,0.429-0.131c0.203,0,0.363,0.056,0.49,0.167c0.125,0.111,0.184,0.265,0.184,0.466
				c0,0.178-0.067,0.383-0.202,0.618c-0.141,0.24-0.349,0.465-0.631,0.684c-0.282,0.215-0.633,0.398-1.055,0.539
				c-0.422,0.144-0.91,0.216-1.458,0.216c-1.262,0-2.238-0.357-2.934-1.074c-0.698-0.719-1.051-1.693-1.051-2.92
				c0-0.579,0.088-1.116,0.262-1.612c0.17-0.497,0.421-0.918,0.754-1.274c0.329-0.355,0.732-0.625,1.217-0.814
				c0.481-0.188,1.017-0.282,1.607-0.282c0.763,0,1.42,0.161,1.968,0.487c0.546,0.319,0.961,0.737,1.23,1.249
				c0.273,0.514,0.409,1.033,0.409,1.566c0,0.49-0.142,0.808-0.424,0.956C403.927,475.939,403.531,476.012,403.019,476.012
				 M399.188,474.898h3.549c-0.047-0.668-0.225-1.17-0.539-1.5c-0.316-0.334-0.724-0.498-1.239-0.498
				c-0.487,0-0.889,0.166-1.202,0.505C399.446,473.742,399.254,474.239,399.188,474.898"/>
			<path style="fill:#F9F9F9;" d="M411.163,476.012h-3.83c0.004,0.444,0.094,0.838,0.268,1.177c0.175,0.337,0.407,0.593,0.695,0.768
				c0.289,0.172,0.608,0.257,0.96,0.257c0.232,0,0.448-0.025,0.638-0.084c0.195-0.052,0.382-0.14,0.566-0.257
				c0.183-0.115,0.347-0.24,0.501-0.378c0.15-0.132,0.35-0.314,0.595-0.543c0.102-0.085,0.246-0.131,0.429-0.131
				c0.203,0,0.365,0.056,0.491,0.167c0.125,0.111,0.181,0.265,0.181,0.466c0,0.178-0.066,0.383-0.206,0.618
				c-0.133,0.24-0.344,0.465-0.627,0.684c-0.279,0.215-0.634,0.398-1.054,0.539c-0.421,0.144-0.912,0.216-1.461,0.216
				c-1.259,0-2.234-0.357-2.934-1.074c-0.697-0.719-1.048-1.693-1.048-2.92c0-0.579,0.088-1.116,0.263-1.612
				c0.171-0.497,0.422-0.918,0.752-1.274c0.329-0.355,0.734-0.625,1.219-0.814c0.482-0.188,1.02-0.282,1.607-0.282
				c0.762,0,1.418,0.161,1.973,0.487c0.543,0.319,0.956,0.737,1.224,1.249c0.271,0.514,0.411,1.033,0.411,1.566
				c0,0.49-0.145,0.808-0.424,0.956C412.069,475.939,411.673,476.012,411.163,476.012 M407.333,474.898h3.549
				c-0.048-0.668-0.229-1.17-0.54-1.5c-0.318-0.334-0.726-0.498-1.24-0.498c-0.487,0-0.888,0.166-1.203,0.505
				C407.588,473.742,407.396,474.239,407.333,474.898"/>
			<path style="fill:#F9F9F9;" d="M415.451,472.65v0.234c0.367-0.453,0.75-0.787,1.151-1c0.392-0.215,0.844-0.322,1.346-0.322
				c0.6,0,1.159,0.157,1.666,0.466c0.507,0.313,0.905,0.767,1.199,1.364c0.294,0.6,0.442,1.306,0.442,2.124
				c0,0.601-0.085,1.156-0.254,1.662c-0.169,0.504-0.406,0.926-0.701,1.268c-0.297,0.34-0.646,0.605-1.049,0.79
				c-0.409,0.182-0.839,0.274-1.304,0.274c-0.557,0-1.03-0.112-1.408-0.338c-0.38-0.22-0.742-0.554-1.088-0.986v2.939
				c0,0.857-0.314,1.291-0.939,1.291c-0.37,0-0.61-0.111-0.734-0.332c-0.114-0.226-0.176-0.546-0.176-0.975v-8.451
				c0-0.374,0.08-0.649,0.242-0.836c0.162-0.181,0.386-0.275,0.668-0.275c0.279,0,0.503,0.094,0.676,0.282
				C415.365,472.023,415.451,472.292,415.451,472.65 M419.289,475.495c0-0.517-0.08-0.961-0.237-1.331
				c-0.158-0.372-0.377-0.655-0.654-0.852c-0.277-0.198-0.591-0.299-0.931-0.299c-0.539,0-0.995,0.215-1.365,0.637
				c-0.372,0.428-0.558,1.054-0.558,1.882c0,0.775,0.184,1.384,0.555,1.817c0.368,0.433,0.82,0.648,1.368,0.648
				c0.324,0,0.627-0.095,0.904-0.281c0.28-0.191,0.502-0.473,0.667-0.851C419.205,476.486,419.289,476.029,419.289,475.495"/>
			<path style="fill:#F9F9F9;" d="M423.227,470.638c-0.273,0-0.505-0.086-0.697-0.253c-0.196-0.168-0.293-0.402-0.293-0.707
				c0-0.278,0.099-0.506,0.299-0.687c0.198-0.177,0.428-0.268,0.69-0.268c0.257,0,0.48,0.08,0.675,0.241
				c0.196,0.165,0.295,0.403,0.295,0.714c0,0.302-0.096,0.537-0.285,0.706C423.719,470.551,423.492,470.638,423.227,470.638
				 M424.196,472.66v5.664c0,0.389-0.094,0.686-0.279,0.885c-0.189,0.203-0.423,0.302-0.711,0.302c-0.288,0-0.517-0.101-0.701-0.307
				c-0.176-0.209-0.268-0.502-0.268-0.88v-5.608c0-0.385,0.092-0.675,0.268-0.871c0.184-0.2,0.413-0.296,0.701-0.296
				c0.288,0,0.522,0.096,0.711,0.296C424.103,472.041,424.196,472.314,424.196,472.66"/>
			<path style="fill:#F9F9F9;" d="M430.508,478.617l-1.724-2.843l-1.063,1.003v1.559c0,0.377-0.1,0.666-0.299,0.868
				c-0.194,0.206-0.428,0.307-0.684,0.307c-0.301,0-0.54-0.099-0.71-0.302c-0.171-0.199-0.259-0.496-0.259-0.886v-8.352
				c0-0.433,0.086-0.763,0.25-0.992c0.168-0.23,0.411-0.341,0.72-0.341c0.302,0,0.538,0.103,0.717,0.311
				c0.177,0.204,0.267,0.509,0.267,0.908v4.751l2.202-2.312c0.273-0.284,0.478-0.484,0.624-0.588
				c0.143-0.105,0.316-0.157,0.521-0.157c0.246,0,0.448,0.078,0.616,0.233c0.159,0.156,0.242,0.352,0.242,0.584
				c0,0.286-0.267,0.671-0.796,1.149l-1.039,0.953l2.008,3.158c0.146,0.237,0.256,0.411,0.32,0.533
				c0.063,0.12,0.098,0.241,0.098,0.349c0,0.312-0.086,0.554-0.257,0.736c-0.17,0.178-0.395,0.267-0.669,0.267
				c-0.239,0-0.425-0.061-0.554-0.193C430.906,479.187,430.726,478.953,430.508,478.617"/>
			<path style="fill:#F9F9F9;" d="M434.762,479.511c-0.296,0-0.549-0.095-0.765-0.288c-0.215-0.188-0.324-0.457-0.324-0.804
				c0-0.291,0.104-0.543,0.31-0.751c0.207-0.211,0.459-0.316,0.761-0.316c0.3,0,0.555,0.105,0.772,0.311
				c0.211,0.208,0.319,0.462,0.319,0.756c0,0.341-0.108,0.61-0.319,0.8C435.299,479.416,435.048,479.511,434.762,479.511"/>
			<path style="fill:#F9F9F9;" d="M444.5,477.087c0,0.242-0.073,0.504-0.22,0.781c-0.145,0.279-0.369,0.542-0.669,0.793
				c-0.298,0.251-0.673,0.455-1.129,0.607c-0.453,0.152-0.967,0.231-1.533,0.231c-1.213,0-2.158-0.355-2.837-1.058
				c-0.676-0.706-1.016-1.653-1.016-2.839c0-0.806,0.154-1.514,0.467-2.132c0.307-0.615,0.758-1.093,1.345-1.43
				c0.588-0.338,1.295-0.506,2.109-0.506c0.509,0,0.972,0.074,1.399,0.223c0.423,0.147,0.779,0.341,1.076,0.573
				c0.292,0.237,0.518,0.486,0.672,0.749c0.156,0.266,0.232,0.514,0.232,0.745c0,0.232-0.086,0.431-0.259,0.594
				c-0.178,0.162-0.389,0.245-0.633,0.245c-0.165,0-0.3-0.043-0.409-0.125c-0.108-0.085-0.23-0.219-0.361-0.409
				c-0.24-0.361-0.488-0.635-0.752-0.815c-0.259-0.184-0.589-0.273-0.992-0.273c-0.575,0-1.045,0.225-1.399,0.678
				c-0.353,0.45-0.531,1.072-0.531,1.853c0,0.369,0.047,0.709,0.138,1.017c0.088,0.307,0.22,0.571,0.393,0.788
				c0.174,0.217,0.38,0.381,0.624,0.494c0.245,0.116,0.514,0.17,0.803,0.17c0.394,0,0.73-0.091,1.009-0.272
				c0.284-0.182,0.53-0.459,0.745-0.832c0.12-0.22,0.247-0.391,0.384-0.516c0.138-0.123,0.309-0.188,0.51-0.188
				c0.239,0,0.438,0.093,0.594,0.273C444.42,476.688,444.5,476.883,444.5,477.087"/>
			<path style="fill:#F9F9F9;" d="M452.949,475.532c0,0.581-0.092,1.121-0.268,1.615c-0.187,0.492-0.447,0.916-0.793,1.267
				c-0.344,0.354-0.756,0.625-1.232,0.815c-0.483,0.187-1.019,0.283-1.615,0.283c-0.593,0-1.127-0.096-1.601-0.289
				c-0.47-0.188-0.884-0.464-1.228-0.817c-0.348-0.36-0.61-0.781-0.794-1.266c-0.173-0.486-0.265-1.023-0.265-1.609
				c0-0.593,0.094-1.137,0.271-1.629c0.183-0.494,0.444-0.915,0.784-1.263c0.341-0.349,0.75-0.617,1.231-0.808
				c0.486-0.188,1.019-0.282,1.601-0.282c0.592,0,1.131,0.094,1.615,0.288c0.481,0.19,0.893,0.464,1.241,0.815
				c0.346,0.358,0.606,0.777,0.785,1.262C452.858,474.406,452.949,474.941,452.949,475.532 M450.983,475.532
				c0-0.799-0.177-1.42-0.527-1.864c-0.349-0.45-0.823-0.67-1.415-0.67c-0.383,0-0.721,0.1-1.014,0.297
				c-0.292,0.198-0.514,0.49-0.672,0.879c-0.158,0.388-0.238,0.841-0.238,1.358c0,0.512,0.077,0.957,0.234,1.339
				c0.157,0.386,0.379,0.677,0.669,0.88c0.291,0.201,0.63,0.305,1.021,0.305c0.592,0,1.065-0.223,1.415-0.673
				C450.806,476.937,450.983,476.318,450.983,475.532"/>
			<path style="fill:#F9F9F9;" d="M460.416,475.675v2.602c0,0.413-0.091,0.718-0.279,0.927c-0.189,0.206-0.431,0.308-0.738,0.308
				c-0.296,0-0.539-0.102-0.718-0.308c-0.187-0.209-0.281-0.514-0.281-0.927v-3.119c0-0.493-0.015-0.877-0.048-1.151
				c-0.035-0.267-0.127-0.495-0.274-0.667c-0.148-0.178-0.384-0.265-0.703-0.265c-0.642,0-1.062,0.219-1.266,0.665
				c-0.202,0.435-0.307,1.067-0.307,1.892v2.644c0,0.406-0.092,0.714-0.273,0.924c-0.188,0.206-0.428,0.311-0.728,0.311
				c-0.299,0-0.541-0.105-0.73-0.311c-0.19-0.209-0.284-0.517-0.284-0.924v-5.601c0-0.369,0.084-0.649,0.253-0.839
				c0.173-0.194,0.397-0.288,0.672-0.288c0.269,0,0.492,0.093,0.673,0.268c0.178,0.18,0.268,0.428,0.268,0.743v0.185
				c0.342-0.404,0.706-0.703,1.091-0.891c0.39-0.196,0.817-0.291,1.293-0.291c0.492,0,0.914,0.099,1.267,0.294
				c0.355,0.197,0.644,0.495,0.876,0.888c0.332-0.399,0.686-0.697,1.065-0.891c0.377-0.194,0.795-0.291,1.255-0.291
				c0.533,0,0.997,0.108,1.385,0.316c0.385,0.21,0.674,0.513,0.866,0.902c0.167,0.357,0.249,0.913,0.249,1.674v3.822
				c0,0.413-0.092,0.718-0.277,0.927c-0.186,0.206-0.434,0.308-0.74,0.308c-0.298,0-0.539-0.105-0.728-0.311
				c-0.189-0.209-0.284-0.517-0.284-0.924v-3.293c0-0.422-0.018-0.757-0.052-1.01c-0.035-0.254-0.133-0.468-0.289-0.639
				c-0.16-0.172-0.4-0.26-0.719-0.26c-0.258,0-0.503,0.08-0.735,0.232c-0.232,0.15-0.413,0.36-0.544,0.613
				C460.491,474.252,460.416,474.837,460.416,475.675"/>
		</g>
		<g>
			<path style="fill:#F9F9F9;" d="M369.289,475.057c-0.002-0.004-0.002-0.007-0.002-0.013
				C369.287,475.05,369.287,475.054,369.289,475.057z"/>
			<path style="fill:#F9F9F9;" d="M369.387,475.684c0.002,0,0.002,0,0.002,0c-0.038-0.178-0.067-0.355-0.09-0.53
				C369.323,475.33,369.352,475.507,369.387,475.684z"/>
			<path style="fill:#F9F9F9;" d="M370.035,477.5c-0.004-0.007-0.008-0.016-0.013-0.025
				C370.027,477.484,370.031,477.493,370.035,477.5z"/>
			<path style="fill:#F9F9F9;" d="M369.974,477.379c-0.017-0.033-0.033-0.068-0.049-0.101
				C369.94,477.314,369.957,477.346,369.974,477.379z"/>
			<path style="fill:#F9F9F9;" d="M369.569,476.383c0.096,0.302,0.211,0.595,0.345,0.874c-0.136-0.285-0.249-0.579-0.342-0.874
				C369.571,476.383,369.57,476.383,369.569,476.383z"/>
			<path style="fill:#F9F9F9;" d="M376.867,467.556c0.378,0,0.658,0.03,0.978,0.084l0.091-0.576c0,0-0.884-0.272-2.046-0.177
				l-0.091-0.313c0.361-0.076,0.633-0.397,0.633-0.781c0-0.439-0.358-0.796-0.798-0.796c-0.44,0-0.797,0.356-0.797,0.796
				c0,0.383,0.271,0.705,0.631,0.781l0.101,0.349c-1.234,0.17-2.216,0.651-2.216,0.651l0.174,0.532
				c0.746-0.249,1.394-0.4,1.981-0.463C376.081,467.582,376.514,467.556,376.867,467.556z"/>
			<path style="fill:#F9F9F9;" d="M370.021,470.469l0.004-0.006c0.029-0.038,0.057-0.073,0.086-0.108l-0.236-0.17l-0.368-0.269
				c-0.021,0.029-0.6,0.562-1.058,1.546c-0.019-0.031-0.042-0.061-0.068-0.09c-0.137-0.15-0.329-0.226-0.572-0.222
				c-0.003,0-0.007,0-0.011,0c-0.151,0-0.254-0.05-0.322-0.111c0.068-0.086,0.108-0.193,0.108-0.312
				c0-0.278-0.226-0.505-0.505-0.505c-0.278,0-0.505,0.227-0.505,0.505c0,0.279,0.226,0.505,0.505,0.505
				c0.044,0,0.086-0.007,0.126-0.016c0.124,0.138,0.321,0.258,0.61,0.252c0.149-0.001,0.257,0.037,0.33,0.117
				c0.084,0.091,0.112,0.223,0.121,0.323c-0.001,0.002-0.001,0.004-0.002,0.004c-0.329,0.898-0.235,2.016-0.235,2.016l0.798,0.032
				c0.016-0.407,0.074-1.119,0.281-1.684C369.503,471.182,370,470.497,370.021,470.469z"/>
			<path style="fill:#F9F9F9;" d="M383.812,468.223c-0.278,0-0.505,0.225-0.505,0.505c0,0.043,0.007,0.085,0.018,0.125
				c-0.139,0.125-0.259,0.323-0.254,0.612c0.002,0.149-0.036,0.257-0.116,0.329c-0.064,0.057-0.145,0.087-0.223,0.106
				c-0.594-0.832-1.326-1.34-1.326-1.34l-0.573,0.614c0.433,0.394,0.875,0.887,1.305,1.503c0.297,0.425,0.603,0.974,0.857,1.521
				l0.773-0.367c0,0-0.353-0.872-0.85-1.654c0.086-0.03,0.173-0.077,0.25-0.145c0.151-0.136,0.226-0.329,0.221-0.572
				c-0.001-0.157,0.05-0.263,0.112-0.333c0.086,0.066,0.194,0.108,0.311,0.108c0.28,0,0.506-0.226,0.506-0.505
				C384.317,468.449,384.092,468.223,383.812,468.223z"/>
			<path style="fill:#F9F9F9;" d="M381.806,475.17c-1.064,0.518-2.815,1.203-5.12,1.525c-0.905,0.125-1.781,0.172-2.588,0.172
				c-1.05,0-1.978-0.078-2.69-0.168c-0.813-0.103-1.448-0.228-1.836-0.315c0.093,0.296,0.206,0.589,0.342,0.874
				c0.003,0.007,0.006,0.015,0.01,0.021c0.016,0.033,0.032,0.068,0.049,0.101c0.016,0.033,0.033,0.066,0.049,0.096
				c0.005,0.009,0.009,0.018,0.013,0.025c0.229,0.431,0.503,0.827,0.816,1.169c1.087,1.189,2.195,1.377,2.205,1.379l0.017,0.002
				l0.016,0.006c0.01,0.004,0.992,0.321,2.485,0.321c1.469,0,2.91-0.296,4.284-0.881c1.017-0.521,1.979-1.311,2.457-2.016
				c0.369-0.546,0.635-1.127,0.793-1.732c0.084-0.322,0.15-0.836,0.111-1.378C382.92,474.572,382.446,474.858,381.806,475.17z"/>
			<path style="fill:#F9F9F9;" d="M370.362,470.721c-0.031,0.045-0.492,0.698-0.857,1.701c-0.273,0.751-0.261,1.845-0.261,1.857
				v0.002c0,0.257,0.014,0.511,0.043,0.763c0,0.006,0,0.01,0.002,0.013c0.003,0.033,0.008,0.063,0.011,0.096
				c0.023,0.175,0.052,0.352,0.09,0.53c0.529,0.134,3.683,0.87,7.209,0.379c2.21-0.307,3.888-0.961,4.906-1.455
				c0.846-0.411,1.391-0.782,1.601-0.935c-0.209-0.776-0.787-1.993-1.316-2.753c-1.514-2.163-3.146-2.718-3.984-2.856
				c-0.32-0.052-0.576-0.083-0.939-0.083c-0.338,0-0.756,0.027-1.316,0.086c-0.561,0.058-1.187,0.206-1.912,0.45
				c-1.017,0.341-1.938,0.875-2.663,1.546l-0.025,0.023C370.844,470.185,370.62,470.393,370.362,470.721z M379.626,470.217
				c0.725,0,1.316,0.59,1.316,1.316c0,0.726-0.591,1.317-1.316,1.317c-0.726,0-1.315-0.591-1.315-1.317
				C378.31,470.807,378.899,470.217,379.626,470.217z M373.403,470.165c1.175,0,2.127,0.953,2.127,2.127
				c0,1.174-0.952,2.125-2.127,2.125c-1.174,0-2.126-0.95-2.126-2.125C371.277,471.118,372.23,470.165,373.403,470.165z"/>
		</g>
	</g>
</g>
</svg>
